<svg width="27" height="26" viewBox="0 0 27 26" fill="none" xmlns="http://www.w3.org/2000/svg">
<path d="M2.5702 22.6928H6.66329V12.7524L0.816017 8.36694V20.9386C0.816017 21.9078 1.60101 22.6928 2.5702 22.6928Z" fill="#4285F4"/>
<path d="M20.6967 22.6928H24.7898C25.759 22.6928 26.544 21.9078 26.544 20.9386V8.36694L20.6967 12.7524V22.6928Z" fill="#34A853"/>
<path d="M20.6967 5.151V12.7525L26.544 8.367V6.02809C26.544 3.86021 24.0691 2.62205 22.3339 3.92307L20.6967 5.151Z" fill="#FBBC04"/>
<path fill-rule="evenodd" clip-rule="evenodd" d="M6.66334 12.7523V5.15088L13.6801 10.4134L20.6968 5.15088V12.7523L13.6801 18.0149L6.66334 12.7523Z" fill="#EA4335"/>
<path d="M0.816017 6.02809V8.367L6.66329 12.7525V5.151L5.02605 3.92307C3.29088 2.62205 0.816017 3.86021 0.816017 6.02809Z" fill="#C5221F"/>
</svg>
