<svg width="1440" height="1024" viewBox="0 0 1440 1024" fill="none" xmlns="http://www.w3.org/2000/svg">
<g clip-path="url(#clip0_63_481)">
<rect width="1440" height="1024" fill="#2D0439"/>
<path d="M882.5 590.884C882.5 637.205 868.877 670.074 843.794 691.377C818.695 712.692 782.037 722.5 735.818 722.5C689.534 722.5 644.675 720.08 611.394 706.103C594.766 699.12 581.052 689.261 571.493 675.396C561.934 661.534 556.5 643.626 556.5 620.496C556.5 574.142 567.182 529.373 589.378 496.21C611.56 463.066 645.247 441.5 691.342 441.5C737.525 441.5 785.337 455.733 821.589 481.533C857.836 507.329 882.5 544.661 882.5 590.884Z" stroke="white" stroke-opacity="0.2"/>
<path d="M507.5 585.746C507.5 644.414 524.757 686.068 556.551 713.068C588.361 740.081 634.809 752.5 693.34 752.5C751.937 752.5 808.757 749.437 850.92 731.732C871.989 722.884 889.374 710.389 901.495 692.811C913.615 675.235 920.5 652.537 920.5 623.234C920.5 564.534 906.972 507.831 878.852 465.82C850.746 423.828 808.058 396.5 749.65 396.5C691.154 396.5 630.595 414.526 584.672 447.205C538.756 479.88 507.5 527.178 507.5 585.746Z" stroke="white" stroke-opacity="0.2"/>
<path d="M464.5 568.454C464.5 497.77 485.306 447.566 523.658 415.02C562.025 382.461 618.038 367.5 688.599 367.5C759.225 367.5 827.73 371.188 878.571 392.523C903.979 403.185 924.952 418.246 939.575 439.438C954.198 460.628 962.5 487.989 962.5 523.3C962.5 594.018 946.191 662.337 912.284 712.96C878.39 763.564 826.907 796.5 756.469 796.5C685.944 796.5 612.93 774.783 557.56 735.408C502.196 696.037 464.5 639.039 464.5 568.454Z" stroke="white" stroke-opacity="0.2"/>
<path d="M1011.5 566.123C1011.5 483.257 987.102 424.386 942.116 386.218C897.114 348.037 831.425 330.5 748.693 330.5C665.896 330.5 585.568 334.822 525.947 359.836C496.148 372.338 471.547 390 454.391 414.855C437.237 439.709 427.5 471.797 427.5 513.199C427.5 596.097 446.622 676.192 486.385 735.545C526.135 794.88 586.517 833.5 669.125 833.5C751.822 833.5 837.437 808.041 902.366 761.878C967.289 715.72 1011.5 648.89 1011.5 566.123Z" stroke="white" stroke-opacity="0.2"/>
<path d="M1011.5 566.123C1011.5 483.257 987.102 424.386 942.116 386.218C897.114 348.037 831.425 330.5 748.693 330.5C665.896 330.5 585.568 334.822 525.947 359.836C496.148 372.338 471.547 390 454.391 414.855C437.237 439.709 427.5 471.797 427.5 513.199C427.5 596.097 446.622 676.192 486.385 735.545C526.135 794.88 586.517 833.5 669.125 833.5C751.822 833.5 837.437 808.041 902.366 761.878C967.289 715.72 1011.5 648.89 1011.5 566.123Z" stroke="white" stroke-opacity="0.2"/>
<path d="M1070.5 577.559C1070.5 677.051 1041.22 747.751 987.204 793.592C933.177 839.446 854.322 860.5 755.031 860.5C655.676 860.5 559.264 855.313 487.697 825.277C451.927 810.265 422.387 789.053 401.787 759.197C381.188 729.342 369.5 690.804 369.5 641.089C369.5 541.564 392.449 445.398 440.179 374.129C487.895 302.879 560.384 256.5 659.55 256.5C758.805 256.5 861.564 287.067 939.497 342.493C1017.42 397.915 1070.5 478.166 1070.5 577.559Z" stroke="white" stroke-opacity="0.2"/>
<path d="M321.5 561.827C321.5 673.171 354.251 752.305 414.665 803.616C475.096 854.94 563.29 878.5 674.327 878.5C785.429 878.5 893.251 872.697 973.291 839.081C1013.3 822.278 1046.34 798.536 1069.39 765.115C1092.43 731.696 1105.5 688.559 1105.5 632.918C1105.5 521.541 1079.84 413.917 1026.45 334.154C973.086 254.41 892.01 202.5 781.097 202.5C670.096 202.5 555.175 236.708 468.017 298.738C380.865 360.763 321.5 450.582 321.5 561.827Z" stroke="white" stroke-opacity="0.2"/>
<path d="M257.5 533.861C257.5 402.599 296.097 309.293 367.312 248.79C438.543 188.273 542.49 160.5 673.34 160.5C804.256 160.5 931.325 167.34 1025.66 206.971C1072.81 226.782 1111.76 254.777 1138.93 294.189C1166.09 333.598 1181.5 384.464 1181.5 450.065C1181.5 581.36 1151.26 708.238 1088.34 802.276C1025.44 896.295 929.878 957.5 799.153 957.5C668.338 957.5 532.904 917.174 430.185 844.045C327.472 770.921 257.5 665.025 257.5 533.861Z" stroke="white" stroke-opacity="0.2"/>
<path d="M1261.5 530.459C1261.5 381.418 1217.68 275.463 1136.82 206.755C1055.95 138.033 937.938 106.5 789.397 106.5C640.792 106.5 496.538 114.265 389.443 159.266C335.908 181.761 291.682 213.552 260.837 258.311C229.992 303.068 212.5 360.832 212.5 435.321C212.5 584.395 246.832 728.459 318.258 835.238C389.671 941.998 498.167 1011.5 646.583 1011.5C795.088 1011.5 948.839 965.712 1065.45 882.678C1182.06 799.648 1261.5 679.401 1261.5 530.459Z" stroke="white" stroke-opacity="0.2"/>
<path d="M1341.5 559.42C1341.5 731.342 1290.96 853.578 1197.68 932.846C1104.39 1012.13 968.257 1048.5 796.932 1048.5C625.541 1048.5 459.154 1039.54 335.621 987.633C273.868 961.682 222.847 925.005 187.262 873.365C151.678 821.726 131.5 755.084 131.5 669.154C131.5 497.198 171.099 331.015 253.487 207.838C335.862 84.6798 461.018 4.5 632.219 4.5C803.509 4.5 980.851 57.3167 1115.36 153.1C1249.86 248.88 1341.5 387.596 1341.5 559.42Z" stroke="white" stroke-opacity="0.2"/>
<path d="M43.5 548.795C43.5 740.965 100.014 877.607 204.323 966.219C308.648 1054.84 460.869 1095.5 652.432 1095.5C844.061 1095.5 1030.11 1085.49 1168.24 1027.46C1237.29 998.455 1294.35 957.455 1334.14 899.725C1373.94 841.997 1396.5 767.499 1396.5 671.444C1396.5 479.241 1352.22 293.486 1260.1 155.798C1167.99 18.1288 1028.03 -71.5 836.594 -71.5C645.067 -71.5 446.772 -12.4634 296.371 94.6022C145.976 201.663 43.5 356.724 43.5 548.795Z" stroke="white" stroke-opacity="0.2"/>
</g>
<defs>
<clipPath id="clip0_63_481">
<rect width="1440" height="1024" fill="white"/>
</clipPath>
</defs>
</svg>
