<svg width="221" height="778" viewBox="0 0 221 778" fill="none" xmlns="http://www.w3.org/2000/svg">
<path d="M214.5 605.861C214.5 474.599 253.097 381.293 324.312 320.79C395.543 260.273 499.49 232.5 630.34 232.5C761.256 232.5 888.325 239.34 982.658 278.971C1029.81 298.782 1068.76 326.777 1095.93 366.189C1123.09 405.598 1138.5 456.464 1138.5 522.065C1138.5 653.36 1108.26 780.238 1045.34 874.276C982.441 968.295 886.878 1029.5 756.153 1029.5C625.338 1029.5 489.904 989.174 387.185 916.045C284.472 842.921 214.5 737.025 214.5 605.861Z" stroke="white" stroke-opacity="0.2"/>
<path d="M1218.5 602.459C1218.5 453.418 1174.68 347.463 1093.82 278.755C1012.95 210.033 894.938 178.5 746.397 178.5C597.792 178.5 453.538 186.265 346.443 231.266C292.908 253.761 248.682 285.552 217.837 330.311C186.992 375.068 169.5 432.832 169.5 507.321C169.5 656.395 203.832 800.459 275.258 907.238C346.671 1014 455.167 1083.5 603.583 1083.5C752.088 1083.5 905.839 1037.71 1022.45 954.678C1139.06 871.648 1218.5 751.401 1218.5 602.459Z" stroke="white" stroke-opacity="0.2"/>
<path d="M1281.5 616.42C1281.5 788.342 1230.96 910.578 1137.68 989.846C1044.39 1069.13 908.257 1105.5 736.932 1105.5C565.541 1105.5 399.154 1096.54 275.621 1044.63C213.868 1018.68 162.847 982.005 127.262 930.365C91.6776 878.726 71.5 812.084 71.5 726.154C71.5 554.198 111.099 388.015 193.487 264.838C275.862 141.68 401.018 61.5 572.219 61.5C743.509 61.5 920.851 114.317 1055.36 210.1C1189.86 305.88 1281.5 444.596 1281.5 616.42Z" stroke="white" stroke-opacity="0.2"/>
<path d="M0.5 620.795C0.5 812.965 57.0137 949.607 161.323 1038.22C265.648 1126.84 417.869 1167.5 609.432 1167.5C801.061 1167.5 987.107 1157.49 1125.24 1099.46C1194.29 1070.46 1251.35 1029.46 1291.14 971.725C1330.94 913.997 1353.5 839.499 1353.5 743.444C1353.5 551.241 1309.22 365.486 1217.1 227.798C1124.99 90.1288 985.034 0.5 793.594 0.5C602.067 0.5 403.772 59.5366 253.371 166.602C102.976 273.663 0.5 428.724 0.5 620.795Z" stroke="white" stroke-opacity="0.2"/>
</svg>
